<svg width="20" height="20" viewBox="0 0 20 20" fill="none" xmlns="http://www.w3.org/2000/svg">
<path fill-rule="evenodd" clip-rule="evenodd" d="M9.19058 12.5006C9.65049 12.4832 10.0374 12.842 10.0548 13.3019C10.0939 14.3387 10.1489 15.0955 10.2029 15.638C10.2562 16.1724 10.5787 16.4939 11.0284 16.5488C11.5586 16.6136 12.3065 16.6667 13.3329 16.6667C14.3593 16.6667 15.1073 16.6136 15.6375 16.5488C16.0869 16.4939 16.4096 16.1722 16.4629 15.6378C16.5632 14.6307 16.6662 12.8907 16.6662 10C16.6662 7.10933 16.5632 5.36935 16.4629 4.36224C16.4096 3.82778 16.0869 3.50615 15.6375 3.45121C15.1073 3.38639 14.3593 3.33334 13.3329 3.33334C12.3065 3.33334 11.5586 3.38639 11.0284 3.4512C10.5787 3.50617 10.2562 3.82766 10.2029 4.36199C10.1489 4.90455 10.0939 5.66129 10.0548 6.69811C10.0374 7.15802 9.65049 7.51678 9.19058 7.49942C8.73067 7.48205 8.37191 7.09515 8.38928 6.63524C8.42945 5.57105 8.48641 4.77953 8.54447 4.19677C8.66651 2.97163 9.52068 1.95643 10.8261 1.79685C11.4338 1.72256 12.2503 1.66668 13.3329 1.66668C14.4156 1.66668 15.232 1.72257 15.8397 1.79686C17.1453 1.95646 17.9993 2.97213 18.1213 4.19703C18.2288 5.27558 18.3329 7.07374 18.3329 10C18.3329 12.9263 18.2288 14.7244 18.1213 15.803C17.9993 17.0279 17.1453 18.0436 15.8397 18.2032C15.232 18.2775 14.4156 18.3333 13.3329 18.3333C12.2503 18.3333 11.4338 18.2775 10.8261 18.2032C9.52069 18.0436 8.66651 17.0284 8.54447 15.8032C8.48641 15.2205 8.42945 14.429 8.38928 13.3648C8.37191 12.9049 8.73067 12.518 9.19058 12.5006Z" fill="white"/>
<path fill-rule="evenodd" clip-rule="evenodd" d="M6.00625 12.3274C6.33168 12.6528 6.33168 13.1805 6.00625 13.5059C5.68081 13.8314 5.15317 13.8314 4.82774 13.5059L1.91107 10.5893C1.58563 10.2638 1.58563 9.73618 1.91107 9.41074L4.82774 6.49408C5.15317 6.16864 5.68081 6.16864 6.00625 6.49408C6.33168 6.81951 6.33168 7.34715 6.00625 7.67259L4.51217 9.16667H12.5003C12.9606 9.16667 13.3337 9.53976 13.3337 10C13.3337 10.4602 12.9606 10.8333 12.5003 10.8333L4.51217 10.8333L6.00625 12.3274Z" fill="white"/>
</svg>
