<svg width="122" height="31" viewBox="0 0 122 31" fill="none" xmlns="http://www.w3.org/2000/svg">
<path d="M12.984 6.864V9.864H5.784V24H2.16V6.864H12.984ZM21.4258 10.656C22.8978 10.656 24.0898 11.232 25.0018 12.384C25.9138 13.52 26.3698 15.2 26.3698 17.424C26.3698 18.912 26.1538 20.168 25.7218 21.192C25.2898 22.2 24.6978 22.96 23.9458 23.472C23.1938 23.984 22.3218 24.24 21.3298 24.24C20.7058 24.24 20.1618 24.16 19.6978 24C19.2498 23.84 18.8658 23.632 18.5458 23.376C18.2258 23.12 17.9458 22.848 17.7058 22.56H17.5138C17.5778 22.864 17.6258 23.184 17.6578 23.52C17.6898 23.84 17.7058 24.16 17.7058 24.48V29.76H14.1298V10.896H17.0338L17.5378 12.6H17.7058C17.9458 12.248 18.2338 11.928 18.5698 11.64C18.9058 11.336 19.3058 11.096 19.7698 10.92C20.2498 10.744 20.8018 10.656 21.4258 10.656ZM20.2738 13.512C19.6498 13.512 19.1538 13.64 18.7858 13.896C18.4178 14.152 18.1458 14.544 17.9698 15.072C17.8098 15.584 17.7218 16.232 17.7058 17.016V17.4C17.7058 18.248 17.7858 18.968 17.9458 19.56C18.1058 20.136 18.3778 20.576 18.7618 20.88C19.1458 21.184 19.6658 21.336 20.3218 21.336C20.8658 21.336 21.3138 21.184 21.6658 20.88C22.0178 20.576 22.2818 20.128 22.4578 19.536C22.6338 18.944 22.7218 18.224 22.7218 17.376C22.7218 16.096 22.5218 15.136 22.1218 14.496C21.7378 13.84 21.1218 13.512 20.2738 13.512ZM31.3093 24H27.4453L30.9733 18.816C30.5253 18.624 30.1013 18.368 29.7013 18.048C29.3173 17.712 29.0053 17.288 28.7653 16.776C28.5253 16.264 28.4053 15.656 28.4053 14.952C28.4053 13.64 28.9013 12.64 29.8933 11.952C30.8853 11.248 32.1573 10.896 33.7093 10.896H39.8053V24H36.2293V19.128H34.2613L31.3093 24ZM31.9093 14.976C31.9093 15.52 32.1253 15.952 32.5573 16.272C32.9893 16.576 33.5493 16.728 34.2373 16.728H36.2293V13.416H33.7813C33.1413 13.416 32.6693 13.576 32.3653 13.896C32.0613 14.2 31.9093 14.56 31.9093 14.976ZM48.3199 10.656C49.2639 10.656 50.1439 10.784 50.9599 11.04C51.7919 11.28 52.4559 11.656 52.9519 12.168C53.4639 12.68 53.7199 13.336 53.7199 14.136C53.7199 14.92 53.4799 15.544 52.9999 16.008C52.5359 16.472 51.9039 16.808 51.1039 17.016V17.136C51.6639 17.264 52.1679 17.448 52.6159 17.688C53.0639 17.912 53.4159 18.224 53.6719 18.624C53.9439 19.008 54.0799 19.528 54.0799 20.184C54.0799 20.904 53.8479 21.576 53.3839 22.2C52.9359 22.808 52.2319 23.304 51.2719 23.688C50.3279 24.056 49.1119 24.24 47.6239 24.24C46.9199 24.24 46.2559 24.208 45.6319 24.144C45.0079 24.08 44.4399 23.992 43.9279 23.88C43.4159 23.752 42.9679 23.6 42.5839 23.424V20.472C43.1279 20.728 43.7919 20.96 44.5759 21.168C45.3759 21.376 46.2239 21.48 47.1199 21.48C47.7759 21.48 48.3599 21.432 48.8719 21.336C49.3999 21.24 49.8159 21.08 50.1199 20.856C50.4399 20.632 50.5999 20.336 50.5999 19.968C50.5999 19.616 50.4639 19.328 50.1919 19.104C49.9199 18.864 49.5119 18.688 48.9679 18.576C48.4239 18.464 47.7279 18.408 46.8799 18.408H45.4879V15.936H46.8079C47.9919 15.936 48.9039 15.84 49.5439 15.648C50.1999 15.456 50.5279 15.096 50.5279 14.568C50.5279 14.152 50.3199 13.84 49.9039 13.632C49.4879 13.408 48.8079 13.296 47.8639 13.296C47.2399 13.296 46.5599 13.368 45.8239 13.512C45.0879 13.656 44.3919 13.864 43.7359 14.136L42.6799 11.64C43.4319 11.352 44.2559 11.12 45.1519 10.944C46.0479 10.752 47.1039 10.656 48.3199 10.656ZM60.3124 16.08C60.3124 16.352 60.2964 16.688 60.2644 17.088C60.2484 17.488 60.2244 17.896 60.1924 18.312C60.1764 18.728 60.1524 19.096 60.1204 19.416C60.0884 19.736 60.0644 19.96 60.0484 20.088L66.0964 10.896H70.3924V24H66.9364V18.768C66.9364 18.336 66.9524 17.864 66.9844 17.352C67.0164 16.824 67.0484 16.336 67.0804 15.888C67.1284 15.424 67.1604 15.072 67.1764 14.832L61.1524 24H56.8564V10.896H60.3124V16.08ZM75.1378 24.168C74.5778 24.168 74.1138 23.992 73.7458 23.64C73.3938 23.288 73.2178 22.864 73.2178 22.368C73.2178 21.856 73.3938 21.424 73.7458 21.072C74.1138 20.72 74.5778 20.544 75.1378 20.544C75.6978 20.544 76.1538 20.72 76.5058 21.072C76.8738 21.424 77.0578 21.856 77.0578 22.368C77.0578 22.864 76.8738 23.288 76.5058 23.64C76.1538 23.992 75.6978 24.168 75.1378 24.168ZM83.4714 10.896V15.936H88.4634V10.896H92.0394V24H88.4634V18.6H83.4714V24H79.8954V10.896H83.4714ZM101.186 10.656C102.402 10.656 103.442 10.888 104.306 11.352C105.186 11.816 105.866 12.488 106.346 13.368C106.826 14.248 107.066 15.328 107.066 16.608V18.336H98.6181C98.6501 19.344 98.9461 20.136 99.5061 20.712C100.082 21.288 100.874 21.576 101.882 21.576C102.73 21.576 103.498 21.496 104.186 21.336C104.874 21.16 105.586 20.896 106.322 20.544V23.304C105.682 23.624 105.002 23.856 104.282 24C103.578 24.16 102.722 24.24 101.714 24.24C100.402 24.24 99.2421 24 98.2341 23.52C97.2261 23.024 96.4341 22.28 95.8581 21.288C95.2821 20.296 94.9941 19.048 94.9941 17.544C94.9941 16.008 95.2501 14.736 95.7621 13.728C96.2901 12.704 97.0181 11.936 97.9461 11.424C98.8741 10.912 99.9541 10.656 101.186 10.656ZM101.21 13.2C100.522 13.2 99.9461 13.424 99.4821 13.872C99.0341 14.32 98.7701 15.016 98.6901 15.96H103.706C103.706 15.432 103.61 14.96 103.418 14.544C103.242 14.128 102.97 13.8 102.602 13.56C102.234 13.32 101.77 13.2 101.21 13.2ZM120.814 13.584H116.518V24H112.942V13.584H108.646V10.896H120.814V13.584Z" fill="white"/>
</svg>
