<svg width="20" height="20" viewBox="0 0 20 20" fill="none" xmlns="http://www.w3.org/2000/svg">
<path fill-rule="evenodd" clip-rule="evenodd" d="M14.583 12.5C14.2062 12.5 13.6738 12.5521 13.1195 12.628C12.8606 12.6635 12.6631 12.8609 12.6277 13.1199C12.5518 13.6741 12.4997 14.2065 12.4997 14.5833C12.4997 14.9602 12.5518 15.4926 12.6277 16.0468C12.6631 16.3058 12.8606 16.5032 13.1195 16.5387C13.6738 16.6146 14.2062 16.6667 14.583 16.6667C14.9598 16.6667 15.4922 16.6146 16.0465 16.5387C16.3054 16.5032 16.5029 16.3058 16.5383 16.0468C16.6143 15.4926 16.6663 14.9602 16.6663 14.5833C16.6663 14.2065 16.6143 13.6741 16.5383 13.1199C16.5029 12.8609 16.3054 12.6635 16.0465 12.628C15.4922 12.5521 14.9598 12.5 14.583 12.5ZM12.8934 10.9768C11.8935 11.1137 11.1134 11.8938 10.9764 12.8937C10.8979 13.4672 10.833 14.0901 10.833 14.5833C10.833 15.0765 10.8979 15.6995 10.9764 16.273C11.1134 17.2729 11.8935 18.053 12.8934 18.1899C13.4669 18.2685 14.0898 18.3333 14.583 18.3333C15.0762 18.3333 15.6991 18.2685 16.2726 18.1899C17.2726 18.053 18.0527 17.2729 18.1896 16.273C18.2681 15.6995 18.333 15.0765 18.333 14.5833C18.333 14.0901 18.2681 13.4672 18.1896 12.8937C18.0527 11.8938 17.2726 11.1137 16.2726 10.9768C15.6991 10.8982 15.0762 10.8333 14.583 10.8333C14.0898 10.8333 13.4669 10.8982 12.8934 10.9768Z" fill="white"/>
<path fill-rule="evenodd" clip-rule="evenodd" d="M5.41699 12.5C5.04017 12.5 4.50776 12.5521 3.9535 12.628C3.69456 12.6635 3.49712 12.8609 3.46165 13.1199C3.38575 13.6741 3.33366 14.2065 3.33366 14.5833C3.33366 14.9602 3.38575 15.4926 3.46165 16.0468C3.49712 16.3058 3.69456 16.5032 3.9535 16.5387C4.50776 16.6146 5.04017 16.6667 5.41699 16.6667C5.79381 16.6667 6.32622 16.6146 6.88048 16.5387C7.13942 16.5032 7.33687 16.3058 7.37233 16.0468C7.44824 15.4926 7.50033 14.9602 7.50033 14.5833C7.50033 14.2065 7.44824 13.6741 7.37233 13.1199C7.33687 12.8609 7.13942 12.6635 6.88048 12.628C6.32622 12.5521 5.79381 12.5 5.41699 12.5ZM3.72736 10.9768C2.72744 11.1137 1.94734 11.8938 1.8104 12.8937C1.73186 13.4672 1.66699 14.0901 1.66699 14.5833C1.66699 15.0765 1.73186 15.6995 1.8104 16.273C1.94734 17.2729 2.72744 18.053 3.72736 18.1899C4.30086 18.2685 4.92379 18.3333 5.41699 18.3333C5.91019 18.3333 6.53312 18.2685 7.10663 18.1899C8.10655 18.053 8.88664 17.2729 9.02358 16.273C9.10213 15.6995 9.16699 15.0765 9.16699 14.5833C9.16699 14.0901 9.10213 13.4672 9.02358 12.8937C8.88664 11.8938 8.10655 11.1137 7.10663 10.9768C6.53312 10.8982 5.91019 10.8333 5.41699 10.8333C4.92379 10.8333 4.30086 10.8982 3.72736 10.9768Z" fill="white"/>
<path fill-rule="evenodd" clip-rule="evenodd" d="M14.583 3.33332C14.2062 3.33332 13.6738 3.38541 13.1195 3.46132C12.8606 3.49678 12.6631 3.69423 12.6277 3.95317C12.5518 4.50743 12.4997 5.03984 12.4997 5.41666C12.4997 5.79347 12.5518 6.32589 12.6277 6.88015C12.6631 7.13909 12.8606 7.33653 13.1195 7.37199C13.6738 7.4479 14.2062 7.49999 14.583 7.49999C14.9598 7.49999 15.4922 7.4479 16.0465 7.37199C16.3054 7.33653 16.5029 7.13909 16.5383 6.88015C16.6143 6.32589 16.6663 5.79347 16.6663 5.41666C16.6663 5.03984 16.6143 4.50743 16.5383 3.95317C16.5029 3.69423 16.3054 3.49678 16.0465 3.46132C15.4922 3.38541 14.9598 3.33332 14.583 3.33332ZM12.8934 1.81007C11.8935 1.94701 11.1134 2.7271 10.9764 3.72702C10.8979 4.30053 10.833 4.92346 10.833 5.41666C10.833 5.90986 10.8979 6.53279 10.9764 7.10629C11.1134 8.10621 11.8935 8.8863 12.8934 9.02325C13.4669 9.10179 14.0898 9.16666 14.583 9.16666C15.0762 9.16666 15.6991 9.10179 16.2726 9.02325C17.2726 8.8863 18.0527 8.10621 18.1896 7.10629C18.2681 6.53279 18.333 5.90986 18.333 5.41666C18.333 4.92346 18.2681 4.30053 18.1896 3.72702C18.0527 2.7271 17.2726 1.94701 16.2726 1.81007C15.6991 1.73152 15.0762 1.66666 14.583 1.66666C14.0898 1.66666 13.4669 1.73152 12.8934 1.81007Z" fill="white"/>
<path fill-rule="evenodd" clip-rule="evenodd" d="M5.41699 3.33332C5.04017 3.33332 4.50776 3.38541 3.9535 3.46132C3.69456 3.49678 3.49712 3.69423 3.46165 3.95317C3.38575 4.50743 3.33366 5.03984 3.33366 5.41666C3.33366 5.79347 3.38575 6.32589 3.46165 6.88015C3.49712 7.13909 3.69456 7.33653 3.9535 7.37199C4.50776 7.4479 5.04017 7.49999 5.41699 7.49999C5.79381 7.49999 6.32622 7.4479 6.88048 7.37199C7.13942 7.33653 7.33687 7.13909 7.37233 6.88015C7.44824 6.32589 7.50033 5.79347 7.50033 5.41666C7.50033 5.03984 7.44824 4.50743 7.37233 3.95317C7.33687 3.69423 7.13942 3.49678 6.88048 3.46132C6.32622 3.38541 5.79381 3.33332 5.41699 3.33332ZM3.72736 1.81007C2.72744 1.94701 1.94734 2.7271 1.8104 3.72702C1.73186 4.30053 1.66699 4.92346 1.66699 5.41666C1.66699 5.90986 1.73186 6.53279 1.8104 7.10629C1.94734 8.10621 2.72744 8.8863 3.72736 9.02325C4.30086 9.10179 4.92379 9.16666 5.41699 9.16666C5.91019 9.16666 6.53312 9.10179 7.10663 9.02325C8.10655 8.8863 8.88664 8.10621 9.02358 7.10629C9.10213 6.53279 9.16699 5.90986 9.16699 5.41666C9.16699 4.92346 9.10213 4.30053 9.02358 3.72702C8.88664 2.7271 8.10655 1.94701 7.10663 1.81007C6.53312 1.73152 5.91019 1.66666 5.41699 1.66666C4.92379 1.66666 4.30086 1.73152 3.72736 1.81007Z" fill="white"/>
</svg>
