<svg width="20" height="20" viewBox="0 0 20 20" fill="none" xmlns="http://www.w3.org/2000/svg">
<path fill-rule="evenodd" clip-rule="evenodd" d="M10.0003 18.3333C14.6027 18.3333 18.3337 14.6024 18.3337 9.99999C18.3337 5.39762 14.6027 1.66666 10.0003 1.66666C5.39795 1.66666 1.66699 5.39762 1.66699 9.99999C1.66699 14.6024 5.39795 18.3333 10.0003 18.3333ZM15.2668 14.0881C16.1444 12.9592 16.667 11.5406 16.667 9.99999C16.667 6.60031 14.1223 3.79498 10.8337 3.3849V6.77167C12.2713 7.14171 13.3337 8.44679 13.3337 9.99999C13.3337 10.6182 13.1654 11.1971 12.8721 11.6934L15.2668 14.0881ZM14.0883 15.2666L11.6936 12.8719C11.1973 13.1651 10.6185 13.3333 10.0003 13.3333C9.38218 13.3333 8.80334 13.1651 8.3071 12.8719L5.91236 15.2666C7.04125 16.1441 8.45976 16.6667 10.0003 16.6667C11.5409 16.6667 12.9594 16.1441 14.0883 15.2666ZM6.66699 9.99999C6.66699 10.6182 6.83528 11.1971 7.12855 11.6934L4.73383 14.0881C3.85625 12.9592 3.33366 11.5406 3.33366 9.99999C3.33366 6.60031 5.8784 3.79498 9.16699 3.3849V6.77167C7.7293 7.14171 6.66699 8.44679 6.66699 9.99999ZM10.0003 11.6667C10.9208 11.6667 11.667 10.9205 11.667 9.99999C11.667 9.07952 10.9208 8.33332 10.0003 8.33332C9.07985 8.33332 8.33366 9.07952 8.33366 9.99999C8.33366 10.9205 9.07985 11.6667 10.0003 11.6667Z" fill="white"/>
</svg>
